<?xml version="1.0" encoding="UTF-8"?>
<svg id="Layer_1" data-name="Layer 1" xmlns="http://www.w3.org/2000/svg" viewBox="0 0 229.06 229.06">
  <defs>
    <style>
      .cls-1 {
        fill: #006241;
        stroke: #006241;
        stroke-miterlimit: 10;
        stroke-width: 7px;
      }
    </style>
  </defs>
  <path class="cls-1" d="M50.31,62.77c4.41.03,8.83.13,13.24.07,9.48-.13,18.97-.37,28.45-.51,7.09-.1,14.06.59,20.71,3.32,16.48,6.77,18.89,23.88,14.27,35.02-4,9.65-11.07,16.02-21.08,19.09-.31.1-.62.19-1.05.33.17.39.28.73.45,1.03,7.46,12.89,15.96,25.03,26.1,35.97,3.86,4.16,8.37,7.41,14.14,8.46.69.12,1.39.17,2.27.28,0,1.31.06,2.61-.04,3.9-.03.31-.55.74-.92.84-1.44.41-2.9.71-4.36,1.05h-5.64c-.45-.09-.91-.22-1.37-.28-7.37-.95-13.66-4-18.52-9.69-2.01-2.35-3.94-4.79-5.78-7.28-7.39-9.98-13.91-20.51-20.01-31.32-.41-.73-.84-1.07-1.73-1.08-3.61-.03-7.23-.16-10.84-.24-.4,0-.8,0-1.22,0-.03.46-.07.73-.07,1.01,0,9.82-.04,19.64.03,29.45.01,1.96.26,3.94.64,5.87.75,3.77,2.68,5.46,6.48,5.98,2.56.35,5.12.68,7.67,1.08.41.07,1.09.44,1.11.71.11,1.43.05,2.87.05,4.36-.68,0-1.14.01-1.61,0-6.24-.16-12.48-.45-18.72-.44-7.56.02-15.11.29-22.67.46,0-1.69,0-3.38,0-5.08,2.26-.38,4.52-.77,6.78-1.13,3.41-.55,5.53-2.56,6.14-5.91.45-2.48.74-5.03.75-7.54.06-22.73.05-45.46,0-68.19,0-2.47-.29-4.97-.72-7.41-.6-3.41-2.71-5.44-6.19-6.03-2.26-.38-4.5-.9-6.75-1.35,0-1.6,0-3.2,0-4.79ZM77.42,70.4v43.21c4.77.69,15.77,1.1,20.78-.43,4.07-1.25,7.76-3.1,10.64-6.3,4.65-5.17,5.94-11.39,5.4-18.08-.77-9.47-6.17-15.91-15.48-17.77-4.28-.85-8.76-.73-13.16-.87-2.7-.09-5.41.15-8.19.25Z"/>
  <path class="cls-1" d="M153.07,57.15c.19,3.64.23,7.32.6,10.95.5,4.8,2.74,8.54,7.59,10.04,4.72,1.45,9.22,1,13.06-2.47,2.43-2.19,3.04-5.22,3.48-8.26.2-1.34.15-2.72.23-4.08.06-.91-.35-1.24-1.25-1.23-2.77.03-5.54.02-8.32,0-1.81,0-1.87-.06-1.87-1.93,0-1.41.02-2.82,0-4.23-.01-.89.38-1.26,1.28-1.25,5.87.02,11.75.02,17.62,0,.89,0,1.3.34,1.27,1.24-.15,4.31,0,8.66-.48,12.94-1.21,11.04-8.59,17.65-19.71,17.96-5.09.14-9.92-.77-14.11-3.91-3.95-2.97-6.33-7.03-7.1-11.79-1.49-9.23-1.6-18.57-.05-27.78,1.63-9.67,8.8-15.59,18.67-16.05,6.38-.3,12.3,1,16.92,5.75,1.51,1.56,2.58,3.55,3.81,5.37.55.81.29,1.38-.62,1.74-1.75.68-3.5,1.36-5.21,2.14-.99.45-1.52.22-2.01-.72-1.2-2.27-2.67-4.35-5.08-5.5-7.65-3.67-16.92-.22-18.11,10.07-.42,3.63-.41,7.31-.6,11Z"/>
</svg>