<?xml version="1.0" encoding="UTF-8"?>
<svg id="Layer_1" data-name="Layer 1" xmlns="http://www.w3.org/2000/svg" viewBox="0 0 229.06 229.06">
  <defs>
    <style>
      .cls-1 {
        fill: #323232;
        stroke: #323232;
        stroke-miterlimit: 10;
        stroke-width: 4px;
      }
    </style>
  </defs>
  <path class="cls-1" d="M98.66,45.6c26.92,0,53.84,0,80.76,0-.15.21-.26.48-.46.63-2.05,1.62-4.1,3.23-6.18,4.82-.44.34-.61.7-.61,1.25.03,2.94.02,5.89,0,8.83,0,.51.12.75.65.87,1.21.27,1.72.9,1.8,2.14.05.78.04,1.57.04,2.35,0,15.88,0,31.76-.02,47.65,0,.79-.11,1.64-.43,2.34-1.2,2.62-5.69,3.32-7.91,1.3-1.07-.97-1.38-2.2-1.37-3.59.01-16.31.01-32.62-.01-48.93,0-2.2.34-3,2.4-3.44.02,0,.04-.03.07-.05v-6.36c-.43.35-.76.62-1.08.88-6.64,5.45-13.28,10.91-19.93,16.35-.42.34-.48.57-.18,1.04.45.72.85,1.48,1.2,2.26,1.51,3.35,1.98,6.92,2.04,10.55.08,6.05-1.51,11.59-5.11,16.49-1.97,2.68-4.45,4.87-6.92,7.05-1.96,1.74-3.83,3.55-5.35,5.7-2.56,3.64-2.36,7.39.71,10.62,1.66,1.75,3.47,3.37,5.31,4.94,2.73,2.32,5.65,4.42,8.3,6.83,5.26,4.8,8.37,10.75,8.83,17.93.68,10.78-3.62,19.34-12.24,25.57-8.23,5.94-17.71,8.63-27.74,9.53-1.58.14-3.17.21-4.75.31h-.57c-.38-.04-.75-.09-1.13-.1-3.81-.1-7.58-.46-11.29-1.34-5.65-1.34-11.03-3.34-15.74-6.87-6.99-5.24-9.82-13.51-7.92-21.93,1.33-5.9,4.84-10.45,9.41-14.22,4.04-3.33,8.76-5.37,13.75-6.8,6.3-1.81,12.74-2.79,19.26-3.31.96-.08,1.92-.16,3.04-.26-4.49-5.71-6.86-11.71-3.4-18.82-.43.04-.66.05-.89.08-2.87.33-5.74.36-8.6,0-9.09-1.12-16.06-5.63-20.87-13.38-2.89-4.67-3.77-9.88-3.57-15.3.01-.28,0-.55,0-.92h-32.19c-.05-.08-.11-.17-.16-.25.2-.12.42-.22.59-.37,3.41-2.95,6.81-5.92,10.21-8.87,9.17-7.97,18.35-15.94,27.52-23.91,3.57-3.1,7.13-6.19,10.7-9.28ZM120.43,183.98c3.09-.02,7.87-.79,12.39-2.79,2.55-1.13,4.94-2.52,6.87-4.6,2.54-2.73,3.72-6.01,4.06-9.66.37-3.89-.45-7.56-2.49-10.83-1.25-1.99-2.77-3.92-4.55-5.43-3.6-3.07-7.46-5.85-11.23-8.73-.24-.19-.61-.25-.93-.28-.94-.09-1.89-.18-2.84-.18-7.43-.02-14.67,1.08-21.51,4.1-6.67,2.94-11.05,7.78-11.65,15.3-.62,7.73,2.56,13.75,9.16,17.69,6.39,3.81,13.47,5.4,22.73,5.42ZM134.47,94.97c-.21-1.98-.33-3.97-.63-5.94-1.13-7.48-3.84-14.25-8.93-19.97-3.6-4.05-7.96-6.3-13.48-5.88-3.36.25-6.42,1.3-8.85,3.75-2.75,2.78-4.35,6.18-5.11,9.99-.74,3.68-.56,7.37,0,11.05,1.12,7.39,3.77,14.07,8.96,19.62,4,4.28,8.8,6.19,14.64,5.41,4.52-.6,7.98-2.8,10.41-6.66,2.2-3.48,2.92-7.31,2.99-11.36Z"/>
</svg>