<?xml version="1.0" encoding="UTF-8"?>
<svg id="Layer_1" data-name="Layer 1" xmlns="http://www.w3.org/2000/svg" viewBox="0 0 229.06 229.06">
  <defs>
    <style>
      .cls-1 {
        fill: #323232;
        stroke-width: 0px;
      }
    </style>
  </defs>
  <path class="cls-1" d="M181.57,166.61h-27.25c0-.75,0-1.44,0-2.14,0-15,.01-30,0-45,0-6.98-3.7-12.12-10.02-14.1-7.56-2.37-16.34,3.46-17.1,11.36-.11,1.18-.15,2.37-.15,3.55,0,14.71,0,29.41,0,44.12v2.18h-27.17v-81.67h27.2v9.89c2.55-2.27,4.84-4.77,7.55-6.67,12.13-8.52,25.85-5.8,35.59,2.45,7.45,6.31,11.37,14.46,11.41,24.29.06,16.84.02,33.68.01,50.52,0,.35-.04.7-.07,1.22Z"/>
  <path class="cls-1" d="M81.35,166.61h-27.06v-81.73h27.06v81.73Z"/>
  <path class="cls-1" d="M84.15,52.93c-.07,9.1-7.43,16.36-16.49,16.25-9.02-.11-16.26-7.39-16.26-16.35,0-8.99,7.49-16.45,16.44-16.39,9.05.06,16.37,7.46,16.3,16.48Z"/>
</svg>